<?xml version="1.0" standalone="no"?>
<!DOCTYPE svg PUBLIC "-//W3C//DTD SVG 20010904//EN"
 "http://www.w3.org/TR/2001/REC-SVG-20010904/DTD/svg10.dtd">
<svg version="1.0" xmlns="http://www.w3.org/2000/svg"
 width="700.000000pt" height="700.000000pt" viewBox="0 0 700.000000 700.000000"
 preserveAspectRatio="xMidYMid meet">
<metadata>
Created by potrace 1.14, written by Peter Selinger 2001-2017
</metadata>
<g transform="translate(0.000000,700.000000) scale(0.100000,-0.100000)"
fill="#000000" stroke="none">
<path d="M2701 6035 c0 -203 2 -265 12 -266 46 -3 1556 -3 1570 0 16 3 17 22
17 267 l-1 264 -799 0 -798 0 -1 -265z"/>
<path d="M3318 5495 c-1 -1 -32 -5 -68 -9 -97 -9 -263 -38 -335 -58 -22 -6
-44 -12 -50 -13 -34 -7 -184 -59 -260 -90 -588 -238 -1043 -685 -1308 -1285
-78 -175 -150 -448 -172 -645 -3 -27 -8 -68 -11 -89 -8 -56 -7 -361 1 -426 26
-215 59 -372 115 -540 166 -504 508 -950 954 -1244 236 -156 506 -271 786
-337 64 -15 53 -13 113 -23 27 -4 58 -9 69 -11 103 -20 449 -27 601 -12 442
43 945 255 1269 535 283 244 449 451 614 769 94 181 197 491 220 658 3 28 8
53 10 56 2 3 6 39 9 80 3 41 9 82 11 92 8 25 7 357 0 405 -3 20 -8 60 -11 87
-3 28 -10 75 -15 105 -6 30 -13 69 -16 85 -35 196 -159 525 -265 704 -26 45
-147 226 -177 267 l-31 40 189 189 188 188 -51 60 c-62 72 -214 224 -278 278
l-46 38 -188 -188 -188 -188 -96 69 c-201 146 -418 257 -657 337 -82 27 -162
52 -179 54 -16 3 -62 12 -101 21 -38 8 -90 17 -115 20 -24 4 -62 9 -84 12 -42
6 -441 15 -447 9z m422 -544 c109 -14 130 -18 220 -42 828 -216 1402 -958
1400 -1809 0 -95 -7 -203 -15 -250 -3 -14 -8 -45 -11 -70 -19 -141 -88 -348
-171 -515 -45 -91 -151 -266 -172 -285 -4 -3 -32 -36 -63 -75 -64 -79 -184
-198 -271 -268 -59 -47 -221 -157 -232 -157 -3 0 -22 -10 -43 -23 -116 -71
-380 -165 -542 -193 -130 -22 -213 -28 -350 -27 -186 1 -264 10 -450 55 -164
40 -368 127 -520 221 -59 37 -91 60 -185 129 -51 38 -259 250 -307 313 -99
130 -186 282 -247 430 -19 44 -34 84 -36 90 -1 5 -4 17 -8 25 -39 106 -80 299
-92 435 -6 69 -6 285 0 330 2 17 6 55 10 85 24 208 118 485 227 674 150 260
388 507 638 663 191 118 443 216 640 248 19 3 42 7 50 10 8 2 47 7 85 10 39 4
71 8 72 9 7 7 301 -4 373 -13z"/>
<path d="M3255 4432 c-21 -3 -21 -5 -21 -801 l0 -797 255 0 c141 1 261 4 266
8 8 4 11 260 10 799 l0 793 -245 0 c-135 1 -254 0 -265 -2z"/>
</g>
</svg>
